<?xml version="1.0" standalone="no"?>
<!DOCTYPE svg PUBLIC "-//W3C//DTD SVG 20010904//EN"
 "http://www.w3.org/TR/2001/REC-SVG-20010904/DTD/svg10.dtd">
<svg version="1.0" xmlns="http://www.w3.org/2000/svg"
 width="634.000000pt" height="362.000000pt" viewBox="0 0 634.000000 362.000000"
 preserveAspectRatio="xMidYMid meet">

<g transform="translate(0.000000,362.000000) scale(0.100000,-0.100000)"
fill="#000000" stroke="none">
<path d="M0 1810 l0 -1810 3170 0 3170 0 0 1810 0 1810 -3170 0 -3170 0 0
-1810z m5810 0 l0 -1510 -2640 0 -2640 0 0 1510 0 1510 2640 0 2640 0 0 -1510z"/>
<path d="M1347 2854 c-147 -35 -376 -160 -383 -209 -2 -14 2 -13 24 6 15 13
30 28 33 32 3 5 10 9 15 10 5 1 8 5 7 9 -2 4 5 4 14 1 12 -5 14 -3 8 7 -5 8
-3 11 6 8 7 -2 22 3 31 12 10 9 28 22 41 28 84 40 145 65 218 86 91 27 81 33
-14 10z"/>
<path d="M1475 2853 c-73 -18 -249 -80 -295 -105 -112 -60 -255 -178 -310
-258 -14 -19 -39 -50 -57 -68 -18 -18 -33 -37 -33 -43 0 -5 -18 -47 -41 -94
-64 -135 -80 -200 -86 -366 -3 -85 -1 -181 6 -229 12 -88 58 -236 97 -310 13
-25 24 -50 24 -56 0 -12 61 -105 91 -139 10 -11 43 -50 73 -86 132 -158 324
-281 576 -366 100 -33 114 -35 283 -42 99 -3 181 -2 184 2 3 5 12 6 20 3 17
-7 111 15 198 47 33 12 63 21 68 19 4 -1 7 2 7 8 0 5 7 10 16 10 9 0 12 5 8
12 -5 8 -2 9 10 5 10 -4 15 -3 11 3 -3 6 3 10 14 10 12 0 21 5 21 10 0 15 -6
13 -64 -16 -251 -128 -569 -117 -896 30 -122 55 -318 207 -391 303 -22 29 -43
53 -48 53 -4 0 -16 16 -27 35 -10 19 -22 35 -25 35 -7 0 -68 124 -101 205 -52
128 -86 415 -63 530 3 17 13 67 21 113 16 85 51 178 84 219 10 13 28 44 40 69
12 24 28 44 36 44 8 0 14 3 14 8 1 23 183 189 230 208 15 7 44 23 66 36 149
93 410 130 615 87 61 -13 169 -62 244 -112 63 -41 168 -145 189 -185 9 -17 27
-43 41 -58 14 -15 25 -33 25 -40 0 -7 9 -28 20 -46 11 -19 26 -79 36 -141 9
-60 20 -104 24 -97 4 6 1 46 -7 88 -7 42 -11 83 -8 90 3 7 0 10 -6 7 -6 -4 -9
-1 -8 6 1 8 -3 27 -10 43 -6 16 -9 38 -6 50 5 17 4 18 -4 6 -11 -15 -12 -12
-15 23 -1 6 -9 18 -19 25 -9 7 -15 18 -12 23 4 5 -1 12 -10 15 -9 4 -14 13
-11 20 3 7 0 16 -6 20 -7 5 -8 2 -3 -6 6 -9 4 -11 -4 -6 -7 5 -10 15 -7 23 3
8 1 11 -4 8 -10 -6 -15 9 -10 30 1 5 -2 7 -6 3 -4 -4 -32 19 -63 50 -64 66
-198 162 -227 162 -16 0 -17 2 -4 11 13 9 12 10 -2 5 -10 -3 -34 2 -55 11 -90
38 -176 53 -303 52 -69 -1 -134 -3 -145 -6z"/>
<path d="M1550 2759 c-136 -29 -192 -50 -330 -120 -55 -28 -127 -87 -212 -174
-65 -66 -88 -98 -129 -184 -50 -101 -82 -186 -92 -246 -22 -120 -13 -335 18
-438 23 -76 85 -228 113 -277 42 -73 155 -208 217 -261 102 -85 152 -123 178
-135 73 -35 97 -50 90 -59 -4 -4 -3 -5 4 -1 7 4 32 -3 55 -15 89 -46 284 -89
421 -93 186 -6 405 55 512 144 8 6 19 9 25 5 6 -4 9 -2 8 3 -2 5 17 30 42 55
89 90 146 153 170 189 14 21 31 38 38 38 7 0 11 4 8 8 -3 5 8 24 24 43 17 19
27 27 24 18 -3 -10 -1 -20 5 -24 7 -4 8 0 4 11 -4 12 -3 15 5 10 8 -5 10 -1 5
10 -4 11 -2 15 4 11 13 -8 55 36 51 54 -2 8 3 13 10 11 13 -2 17 14 4 22 -10
6 -47 -42 -47 -62 0 -8 -8 -16 -17 -18 -16 -2 -16 -1 0 24 9 15 44 58 77 97
81 94 85 98 91 93 2 -3 -9 -19 -25 -37 -16 -17 -26 -33 -22 -36 4 -2 21 13 38
33 71 84 135 144 260 241 29 23 55 41 58 41 2 0 44 23 92 50 49 28 121 61 161
73 69 21 72 23 72 53 0 27 -5 33 -27 37 -29 6 -110 -21 -219 -74 -34 -16 -67
-29 -73 -29 -7 0 -32 -13 -56 -30 -24 -16 -46 -30 -49 -30 -4 0 -25 -13 -48
-30 -22 -16 -46 -30 -53 -30 -11 0 -174 -125 -205 -158 -18 -18 37 14 57 34 7
7 29 22 50 35 21 13 41 28 45 33 4 6 10 7 14 4 9 -10 -16 -32 -63 -56 -22 -12
-51 -34 -64 -49 -24 -28 -41 -34 -55 -21 -10 11 -64 -48 -64 -70 0 -21 -46
-69 -57 -59 -3 4 7 18 22 32 16 13 27 27 24 30 -10 9 -102 -82 -95 -93 9 -14
-63 -94 -77 -85 -6 3 -7 1 -3 -5 7 -11 -32 -38 -41 -28 -3 3 0 14 8 23 13 16
12 17 -4 4 -10 -8 -16 -20 -13 -27 3 -7 -6 -22 -19 -32 -13 -11 -22 -21 -20
-24 3 -2 -14 -15 -38 -28 -23 -12 -80 -44 -127 -69 l-85 -46 -105 0 c-115 0
-141 7 -325 86 -52 22 -100 37 -107 33 -7 -5 -8 -3 -3 5 8 13 -5 28 -68 74
-20 15 -37 33 -37 39 0 7 -18 33 -40 59 -47 56 -104 182 -130 289 -10 41 -25
91 -33 110 -8 19 -17 67 -21 105 -6 79 -3 77 14 -8 7 -32 13 -57 15 -55 2 2 8
37 14 78 11 77 43 188 58 199 4 3 16 23 27 43 23 45 124 133 186 161 35 17 66
21 140 22 87 0 99 -3 145 -29 70 -39 141 -118 177 -195 28 -59 31 -76 32 -161
0 -113 -12 -145 -86 -236 -38 -47 -70 -74 -122 -103 -150 -81 -270 -81 -406 0
l-35 21 35 -32 c70 -63 111 -75 250 -75 138 1 214 21 260 70 13 13 27 22 31
19 10 -6 26 6 85 66 42 43 57 69 32 54 -7 -4 6 13 30 39 23 26 42 52 42 59 0
7 8 27 17 43 28 48 25 278 -4 367 -78 239 -346 428 -605 428 -125 0 -364 -88
-450 -165 -21 -20 -50 -41 -63 -47 -28 -13 -124 -137 -158 -205 -13 -26 -39
-91 -57 -143 -60 -174 -51 -348 27 -575 37 -106 118 -246 177 -307 58 -60 163
-151 191 -165 16 -9 32 -19 35 -23 3 -3 21 -15 40 -26 19 -10 42 -25 51 -32
23 -18 106 -49 223 -83 123 -36 136 -37 110 -7 -14 17 -10 15 14 -5 34 -27 35
-27 160 -24 97 3 142 9 191 26 131 45 232 109 319 201 84 89 116 120 124 120
5 0 -13 -21 -39 -48 -27 -26 -53 -54 -59 -63 -5 -9 -41 -44 -79 -77 -66 -57
-154 -108 -251 -145 -58 -22 -207 -41 -272 -34 l-55 6 29 -32 29 -32 -35 32
c-25 22 -49 33 -85 39 -62 9 -161 37 -206 58 -19 8 -53 22 -77 30 -23 9 -74
37 -114 63 -39 26 -79 53 -89 59 -26 15 -190 176 -220 215 -83 110 -159 295
-183 449 -31 201 -10 354 74 520 38 74 134 202 159 211 9 4 39 27 66 51 28 25
61 49 75 53 14 4 36 15 50 25 42 30 157 71 223 81 158 22 295 6 396 -47 120
-64 147 -83 212 -152 73 -78 101 -125 135 -231 42 -125 43 -314 3 -367 -13
-17 2 -25 20 -12 9 7 4 -1 -10 -17 -15 -17 -34 -43 -42 -60 -46 -90 -228 -244
-297 -252 -14 -2 -52 -10 -85 -18 l-60 -15 55 7 c30 3 72 6 92 7 20 1 45 9 55
17 10 9 38 27 63 41 25 14 57 37 71 49 15 13 35 31 45 40 26 22 75 79 68 79
-3 0 2 7 10 16 9 8 16 21 16 28 0 7 8 21 18 32 9 10 18 28 20 39 2 11 12 47
23 79 24 76 26 217 3 295 -29 99 -86 220 -125 266 -152 179 -351 282 -563 290
-50 3 -111 0 -136 -6z m1910 -863 c0 -2 -7 -7 -16 -10 -8 -3 -12 -2 -9 4 6 10
25 14 25 6z m-95 -16 c3 -5 1 -10 -4 -10 -6 0 -11 5 -11 10 0 6 2 10 4 10 3 0
8 -4 11 -10z m-161 -78 c2 -4 -4 -9 -15 -9 -11 -1 -17 2 -14 8 7 11 22 12 29
1z m-47 -26 c0 -8 -6 -12 -14 -9 -7 3 -13 1 -13 -5 0 -5 -7 -12 -15 -16 -25
-9 -17 8 13 26 15 10 27 18 28 18 0 0 1 -6 1 -14z m103 -1 c0 -2 -10 -9 -22
-15 -22 -11 -22 -10 -4 4 21 17 26 19 26 11z m-2289 -52 c13 -16 12 -17 -3 -4
-10 7 -18 15 -18 17 0 8 8 3 21 -13z m2069 -19 c-47 -20 -61 -16 -20 5 19 11
39 17 44 14 5 -3 -6 -12 -24 -19z m136 10 c-8 -9 -15 -9 -24 -1 -10 7 -18 6
-30 -7 -16 -17 -16 -18 8 -11 24 7 24 6 6 -8 -14 -10 -23 -11 -31 -4 -19 18
13 45 50 44 25 -1 30 -4 21 -13z m-996 -27 c0 -2 -17 -19 -37 -38 l-38 -34 34
38 c33 34 41 42 41 34z m-1130 -42 c13 -14 21 -25 18 -25 -2 0 -15 11 -28 25
-13 14 -21 25 -18 25 2 0 15 -11 28 -25z m1994 0 c-10 -8 -14 -15 -9 -15 13 0
-16 -20 -30 -20 -5 0 -3 5 5 10 8 5 11 10 6 10 -4 0 2 9 15 19 13 11 26 17 28
15 3 -2 -4 -11 -15 -19z m36 -5 c0 -5 -8 -10 -17 -10 -15 0 -16 2 -3 10 19 12
20 12 20 0z m-60 -49 c0 -3 -9 -12 -20 -19 -22 -14 -41 -8 -39 11 0 9 2 8 6
-1 2 -6 9 -10 13 -7 5 3 7 12 4 20 -4 10 0 12 15 8 12 -3 21 -8 21 -12z
m-1879 -38 c13 -16 12 -17 -3 -4 -10 7 -18 15 -18 17 0 8 8 3 21 -13z m1809 3
c0 -2 -17 -16 -37 -31 l-38 -28 30 31 c27 28 45 39 45 28z m-130 -24 c0 -5
-13 -18 -30 -30 -35 -26 -40 -17 -7 15 23 23 37 29 37 15z m140 -7 c-7 -8 -17
-15 -22 -15 -6 0 -5 7 2 15 7 8 17 15 22 15 6 0 5 -7 -2 -15z m-1750 -40 c13
-14 21 -25 18 -25 -2 0 -15 11 -28 25 -13 14 -21 25 -18 25 2 0 15 -11 28 -25z
m1604 -75 c-22 -21 -53 -57 -67 -81 -30 -50 -128 -150 -107 -109 7 14 31 42
53 64 21 21 46 50 55 65 25 38 95 111 101 105 3 -3 -12 -23 -35 -44z m-1524
-5 c13 -14 21 -25 18 -25 -2 0 -15 11 -28 25 -13 14 -21 25 -18 25 2 0 15 -11
28 -25z m1396 -4 c-7 -11 -36 -16 -36 -6 0 3 6 12 13 20 13 15 33 3 23 -14z
m-1316 -76 c13 -14 21 -25 18 -25 -2 0 -15 11 -28 25 -13 14 -21 25 -18 25 2
0 15 -11 28 -25z m1422 -17 c-7 -7 -12 -8 -12 -2 0 14 12 26 19 19 2 -3 -1
-11 -7 -17z m-1342 -63 c13 -14 21 -25 18 -25 -2 0 -15 11 -28 25 -13 14 -21
25 -18 25 2 0 15 -11 28 -25z m91 -82 c13 -16 12 -17 -3 -4 -17 13 -22 21 -14
21 2 0 10 -8 17 -17z m56 -50 c-4 -3 -1 -13 6 -22 11 -14 10 -14 -5 -2 -16 12
-16 31 -1 31 4 0 3 -3 0 -7z m-57 -67 c0 -2 -8 -10 -17 -17 -16 -13 -17 -12
-4 4 13 16 21 21 21 13z m201 -93 c13 -16 12 -17 -3 -4 -17 13 -22 21 -14 21
2 0 10 -8 17 -17z"/>
<path d="M910 2620 c-11 -11 -20 -26 -20 -32 0 -8 5 -6 11 4 5 10 19 24 32 33
12 8 16 15 9 15 -6 0 -21 -9 -32 -20z"/>
<path d="M831 2541 c-10 -7 -7 -9 12 -8 15 1 27 5 27 10 0 10 -22 9 -39 -2z"/>
<path d="M825 2500 c-3 -5 -1 -10 4 -10 6 0 11 5 11 10 0 6 -2 10 -4 10 -3 0
-8 -4 -11 -10z"/>
<path d="M2347 1769 c4 -13 8 -18 11 -10 2 7 -1 18 -6 23 -8 8 -9 4 -5 -13z"/>
<path d="M2229 1733 c-13 -16 -12 -17 4 -4 16 13 21 21 13 21 -2 0 -10 -8 -17
-17z"/>
<path d="M2840 1395 c-13 -14 -18 -25 -12 -25 6 0 17 9 25 20 8 11 17 17 22
12 5 -4 5 -1 1 6 -9 16 -9 16 -36 -13z"/>
<path d="M2597 1373 c-10 -9 -9 -23 1 -23 5 0 9 7 9 15 0 17 -1 18 -10 8z"/>
<path d="M4270 1355 c0 -8 7 -15 15 -15 8 0 15 7 15 15 0 8 -7 15 -15 15 -8 0
-15 -7 -15 -15z"/>
<path d="M3070 1286 c0 -73 -14 -107 -40 -91 -5 3 -10 1 -10 -4 0 -15 43 -14
58 1 15 15 17 168 2 168 -6 0 -10 -31 -10 -74z"/>
<path d="M3650 1270 c0 -53 4 -90 10 -90 6 0 10 16 10 35 0 33 2 35 35 35 19
0 35 5 35 10 0 6 -16 10 -35 10 -33 0 -35 2 -35 35 0 33 2 35 35 35 19 0 35 5
35 10 0 6 -20 10 -45 10 l-45 0 0 -90z"/>
<path d="M2559 1333 c-12 -16 -12 -17 2 -6 9 7 20 9 24 5 5 -4 5 -1 1 6 -9 16
-11 15 -27 -5z"/>
<path d="M3130 1255 c0 -63 12 -74 78 -73 l42 0 0 64 c0 49 -3 64 -15 64 -10
0 -15 -15 -17 -57 -3 -54 -5 -58 -28 -58 -23 0 -25 4 -28 58 -2 42 -7 57 -17
57 -11 0 -15 -14 -15 -55z"/>
<path d="M3297 1303 c-14 -13 -6 -18 25 -18 17 0 33 -6 35 -12 3 -8 -4 -13
-19 -13 -36 0 -60 -22 -56 -51 3 -21 8 -24 51 -25 l47 -1 0 52 c0 28 -5 56
-12 63 -13 13 -60 16 -71 5z m63 -77 c0 -20 -27 -39 -45 -32 -18 7 -20 32 -2
39 24 10 47 7 47 -7z"/>
<path d="M3420 1243 c0 -35 4 -63 10 -63 6 0 10 13 10 29 0 51 17 83 43 79 19
-3 22 -10 25 -55 2 -38 7 -53 18 -53 20 0 19 79 -1 108 -13 17 -24 21 -60 20
l-45 -2 0 -63z"/>
<path d="M3770 1244 c0 -49 3 -64 14 -64 11 0 16 14 18 48 2 38 7 49 26 57 33
15 27 24 -18 23 l-40 0 0 -64z"/>
<path d="M3877 1303 c-15 -14 -6 -21 24 -19 18 0 34 -5 36 -11 3 -8 -4 -13
-19 -13 -36 0 -60 -22 -56 -51 3 -21 8 -24 51 -25 l47 -2 0 58 c0 44 -4 59
-16 64 -21 8 -59 8 -67 -1z m63 -77 c0 -20 -27 -39 -45 -32 -18 7 -20 32 -2
39 24 10 47 7 47 -7z"/>
<path d="M4000 1243 c0 -35 4 -63 10 -63 6 0 10 13 10 29 0 51 17 83 43 79 19
-3 22 -10 25 -55 2 -38 7 -53 18 -53 18 0 19 65 1 100 -11 21 -20 25 -60 26
l-47 1 0 -64z"/>
<path d="M4166 1295 c-36 -36 -32 -98 7 -109 34 -9 65 -7 72 4 4 7 -2 9 -19 4
-34 -8 -56 10 -56 46 0 36 22 54 56 46 19 -5 25 -3 22 6 -7 20 -63 22 -82 3z"/>
<path d="M4280 1245 c0 -37 4 -65 10 -65 6 0 10 28 10 65 0 37 -4 65 -10 65
-6 0 -10 -28 -10 -65z"/>
<path d="M4342 1298 c-21 -21 -13 -45 24 -67 40 -24 36 -45 -7 -39 -16 3 -29
1 -29 -4 0 -9 51 -11 74 -2 26 10 18 42 -14 59 -41 21 -41 50 1 41 22 -4 29
-2 27 7 -6 17 -60 21 -76 5z"/>
<path d="M4466 1295 c-36 -36 -32 -98 7 -109 34 -9 65 -7 72 4 4 7 -2 9 -19 4
-34 -8 -56 10 -56 46 0 36 22 54 56 46 19 -5 25 -3 22 6 -7 20 -63 22 -82 3z"/>
<path d="M4581 1284 c-27 -34 -27 -58 0 -85 17 -17 29 -20 62 -16 44 6 57 19
57 60 0 63 -80 90 -119 41z m78 -8 c31 -37 -9 -103 -46 -80 -37 23 -24 94 17
94 10 0 23 -6 29 -14z"/>
<path d="M2705 1223 c-10 -21 -12 -29 -14 -44 0 -5 -6 -7 -13 -3 -7 4 -8 3 -4
-4 9 -16 8 -16 40 16 23 24 25 31 13 41 -12 9 -16 8 -22 -6z m25 -7 c0 -2 -7
-7 -16 -10 -8 -3 -12 -2 -9 4 6 10 25 14 25 6z"/>
<path d="M790 1209 c0 -5 5 -7 10 -4 6 3 10 8 10 11 0 2 -4 4 -10 4 -5 0 -10
-5 -10 -11z"/>
<path d="M850 1160 c0 -5 5 -10 11 -10 5 0 7 5 4 10 -3 6 -8 10 -11 10 -2 0
-4 -4 -4 -10z"/>
<path d="M2650 1151 c0 -5 -3 -18 -6 -28 -6 -16 -5 -16 9 2 19 23 21 35 7 35
-5 0 -10 -4 -10 -9z"/>
<path d="M866 1127 c3 -10 9 -15 12 -12 3 3 0 11 -7 18 -10 9 -11 8 -5 -6z"/>
<path d="M886 1095 c-3 -10 -4 -20 -1 -23 3 -3 5 0 5 6 0 7 5 12 10 12 6 0 8
-10 5 -23 -4 -16 1 -29 21 -47 18 -17 28 -21 31 -12 3 6 10 12 16 12 6 0 4 -7
-5 -16 -15 -15 -12 -20 32 -58 59 -51 149 -116 169 -123 9 -3 48 -21 87 -39
39 -18 110 -45 158 -59 112 -32 168 -33 71 -1 -146 48 -317 137 -373 193 -15
14 -26 18 -18 5 2 -4 -5 -9 -16 -9 -12 -1 -36 13 -57 34 -29 29 -31 34 -11 23
14 -7 28 -18 32 -24 4 -6 10 -8 13 -4 3 3 -8 19 -24 35 -22 22 -31 27 -35 17
-3 -8 -10 -14 -16 -14 -7 0 -7 7 1 21 9 17 8 23 -2 30 -8 4 -16 3 -20 -3 -4
-6 -14 -4 -27 8 -13 11 -17 21 -11 24 6 4 3 16 -9 30 -17 21 -19 22 -26 5z"/>
<path d="M2178 1103 c7 -3 16 -2 19 1 4 3 -2 6 -13 5 -11 0 -14 -3 -6 -6z"/>
<path d="M2621 1093 c-1 -6 -8 -19 -17 -27 -8 -9 -11 -16 -6 -16 15 0 34 28
29 42 -4 9 -6 9 -6 1z"/>
<path d="M3620 1000 c-6 -11 -7 -20 -2 -20 5 0 17 9 27 20 16 18 16 20 2 20
-9 0 -21 -9 -27 -20z"/>
<path d="M4030 920 c0 -82 3 -100 15 -100 12 0 15 18 15 100 0 82 -3 100 -15
100 -12 0 -15 -18 -15 -100z"/>
<path d="M4205 1011 c-7 -12 12 -24 25 -16 11 7 4 25 -10 25 -5 0 -11 -4 -15
-9z"/>
<path d="M4460 986 c0 -34 -1 -35 -33 -29 -56 9 -92 -48 -65 -104 12 -25 18
-28 66 -29 l52 -1 0 99 c0 59 -4 98 -10 98 -5 0 -10 -15 -10 -34z m-8 -71 c22
-49 -25 -98 -60 -63 -7 7 -12 24 -12 38 0 51 52 69 72 25z"/>
<path d="M4520 1005 c0 -8 7 -15 15 -15 8 0 15 7 15 15 0 8 -7 15 -15 15 -8 0
-15 -7 -15 -15z"/>
<path d="M4630 1000 c-6 -11 -7 -20 -2 -20 5 0 17 9 27 20 16 18 16 20 2 20
-9 0 -21 -9 -27 -20z"/>
<path d="M3059 981 c-21 -22 -29 -39 -29 -66 0 -52 44 -95 97 -95 49 0 63 14
63 62 0 37 -1 38 -35 38 -19 0 -35 -4 -35 -10 0 -5 9 -10 21 -10 16 0 20 -5
17 -27 -2 -22 -9 -29 -30 -31 -60 -7 -93 83 -47 129 17 17 29 20 60 16 29 -4
39 -2 39 9 0 10 -13 14 -46 14 -37 0 -51 -5 -75 -29z"/>
<path d="M3900 915 l0 -95 50 0 c28 0 50 5 50 10 0 6 -16 10 -35 10 -33 0 -35
2 -35 35 0 32 2 35 30 35 17 0 30 5 30 10 0 6 -13 10 -30 10 -27 0 -30 3 -30
30 0 28 3 30 35 30 19 0 35 5 35 10 0 6 -22 10 -50 10 l-50 0 0 -95z"/>
<path d="M2529 978 c-12 -23 -12 -23 10 -4 23 21 26 26 11 26 -5 0 -15 -10
-21 -22z"/>
<path d="M4280 981 c0 -11 -6 -22 -12 -24 -10 -4 -10 -7 -1 -14 6 -5 13 -33
15 -63 3 -52 5 -55 31 -58 15 -2 27 1 27 7 0 6 -6 11 -14 11 -17 0 -26 22 -26
66 0 27 4 34 20 34 11 0 20 5 20 10 0 6 -9 10 -20 10 -13 0 -20 7 -20 20 0 11
-4 20 -10 20 -5 0 -10 -9 -10 -19z"/>
<path d="M3237 953 c-14 -13 -6 -18 25 -18 17 0 33 -6 35 -12 3 -8 -4 -13 -19
-13 -31 0 -68 -27 -68 -49 0 -23 19 -41 45 -41 12 0 26 5 33 12 9 9 12 9 12 0
0 -7 5 -12 10 -12 14 0 12 114 -2 128 -13 13 -60 16 -71 5z m63 -77 c0 -20
-27 -39 -45 -32 -18 7 -20 32 -2 39 24 10 47 7 47 -7z"/>
<path d="M3360 890 c0 -40 4 -70 10 -70 6 0 10 18 10 41 0 47 14 79 35 79 8 0
15 5 15 10 0 14 -23 13 -38 -2 -9 -9 -12 -9 -12 0 0 7 -4 12 -10 12 -6 0 -10
-30 -10 -70z"/>
<path d="M3461 939 c-44 -48 -11 -123 51 -117 17 2 33 9 36 16 3 9 -3 11 -22
6 -34 -8 -56 10 -56 46 0 36 22 54 56 46 19 -5 25 -3 22 6 -8 24 -64 21 -87
-3z"/>
<path d="M3586 945 c-52 -52 -11 -137 60 -123 9 1 19 8 21 14 2 7 -6 10 -22 7
-24 -5 -55 11 -55 28 0 5 20 9 45 9 41 0 45 2 45 24 0 49 -60 75 -94 41z m62
-17 c20 -20 14 -28 -23 -28 -19 0 -35 4 -35 8 0 12 22 32 35 32 6 0 16 -5 23
-12z"/>
<path d="M3722 951 c-22 -14 -10 -54 21 -69 15 -7 27 -20 27 -29 0 -12 -7 -14
-36 -10 -25 4 -34 2 -31 -6 8 -26 80 -19 91 8 9 24 -3 42 -35 55 -35 15 -33
35 4 35 16 -1 27 5 27 12 0 15 -47 17 -68 4z"/>
<path d="M4102 948 c-21 -21 -13 -47 18 -63 17 -9 30 -23 30 -31 0 -12 -7 -15
-30 -12 -20 3 -30 0 -30 -9 0 -17 61 -18 78 -1 22 22 13 48 -23 65 -40 19 -41
38 -2 38 16 -1 27 5 27 12 0 16 -52 17 -68 1z"/>
<path d="M4210 890 c0 -40 4 -70 10 -70 6 0 10 30 10 70 0 40 -4 70 -10 70 -6
0 -10 -30 -10 -70z"/>
<path d="M4520 890 c0 -40 4 -70 10 -70 6 0 10 30 10 70 0 40 -4 70 -10 70 -6
0 -10 -30 -10 -70z"/>
<path d="M4596 945 c-52 -52 -11 -137 60 -123 9 1 19 8 21 14 2 7 -6 10 -22 7
-24 -5 -55 11 -55 28 0 5 20 9 45 9 39 0 45 3 45 21 0 53 -57 80 -94 44z m62
-17 c20 -20 14 -28 -23 -28 -19 0 -35 4 -35 8 0 12 22 32 35 32 6 0 16 -5 23
-12z"/>
<path d="M1055 930 c-3 -5 1 -10 9 -10 9 0 16 5 16 10 0 6 -4 10 -9 10 -6 0
-13 -4 -16 -10z"/>
<path d="M2485 930 c-3 -5 -1 -10 4 -10 6 0 11 5 11 10 0 6 -2 10 -4 10 -3 0
-8 -4 -11 -10z"/>
<path d="M2449 893 c-13 -17 -13 -17 6 -3 11 8 22 16 24 17 2 2 0 3 -6 3 -6 0
-17 -8 -24 -17z"/>
<path d="M2410 859 c0 -5 5 -7 10 -4 6 3 10 8 10 11 0 2 -4 4 -10 4 -5 0 -10
-5 -10 -11z"/>
</g>
</svg>
